<?xml version="1.0" encoding="UTF-8"?>
<svg version="1.1" xmlns="http://www.w3.org/2000/svg" width="331" height="454">
<path d="M0 0 C109.23 0 218.46 0 331 0 C331 149.82 331 299.64 331 454 C221.77 454 112.54 454 0 454 C0 304.18 0 154.36 0 0 Z " fill="#FCFCFC" transform="translate(0,0)"/>
<path d="M0 0 C29.24484887 2.51074277 57.15076814 21.41467994 76 43 C79.58080223 47.49610419 82.83671294 52.20404866 86 57 C89.84915788 55.64629972 92.62108722 53.89797514 95.8125 51.375 C107.47756443 42.74754966 123.02415611 34.80070185 137.625 33.1875 C141 34 141 34 142.28051758 35.50854492 C145.29636227 40.56332341 147.81698369 45.68533875 150.0625 51.125 C150.40611572 51.94959717 150.74973145 52.77419434 151.10375977 53.6237793 C159.28186679 73.65674608 162.70548238 95.98767868 156 117 C155.67128906 118.18335938 155.34257812 119.36671875 155.00390625 120.5859375 C150.29926685 136.3765957 141.72716924 148.57509844 130 160 C129.23816406 160.77988281 128.47632813 161.55976563 127.69140625 162.36328125 C123.2004595 166.47517562 120.05929112 167.39783397 113.9375 167.4375 C111.95608645 167.32628664 109.9751905 167.19232921 108 167 C108 166.34 108 165.68 108 165 C109.8961222 163.62840127 111.84478849 162.32925724 113.8125 161.0625 C132.78805367 148.31605871 144.39489376 129.65119139 149.2734375 107.41015625 C153.38928688 85.34379587 147.57215561 62.89436027 136 44 C119.55147203 44.29372371 103.73854189 55.32859828 92 66 C92.63275988 69.58994381 93.61578397 72.83352239 94.875 76.25 C101.5310819 96.33970706 103.4438613 120.64971743 97 141 C96.76410156 141.75200684 96.52820313 142.50401367 96.28515625 143.27880859 C91.85358146 157.29283708 91.85358146 157.29283708 90 161 C87.0625 160.1875 87.0625 160.1875 84 159 C82.8951149 155.6853447 83.0609669 155.09333196 84.14453125 151.9375 C84.40943359 151.13957031 84.67433594 150.34164062 84.94726562 149.51953125 C85.37555664 148.27236328 85.37555664 148.27236328 85.8125 147 C89.7789145 135.40873691 91.33277344 124.76426449 91.25 112.5 C91.25773438 111.35402344 91.26546875 110.20804687 91.2734375 109.02734375 C91.21215544 82.09387687 79.45212429 58.8057148 61.0625 39.6875 C44.96100543 24.18699434 24.43306639 14.65445219 3 9 C2.62488281 9.98806641 2.62488281 9.98806641 2.2421875 10.99609375 C0.9932867 14.01623436 -0.39159479 16.93378103 -1.81762695 19.87280273 C-13.8055506 44.69840588 -18.59647072 72.99716077 -11 100 C-10.67128906 101.21429688 -10.34257813 102.42859375 -10.00390625 103.6796875 C-7.01260924 113.63687687 -2.3014934 122.11671251 3 131 C3.33 131.66 3.66 132.32 4 133 C1.03 133.33 -1.94 133.66 -5 134 C-9.96920698 127.01944734 -13.57948697 119.84777279 -17 112 C-32.92885243 112.45188234 -46.55366279 116.46741857 -61 123 C-62.66261854 123.67669919 -64.32781835 124.34728969 -66 125 C-60.14213588 144.8225664 -60.14213588 144.8225664 -49 162 C-45.42955692 160.71414113 -42.74322814 159.18990666 -39.75 156.875 C-18.5721986 141.84660463 6.39049013 137.79506215 31.8125 142 C46.23628541 145.45267346 59.36562227 152.4582812 72.08251953 159.88427734 C92.46692623 171.74533396 115.05182008 178.84979428 138.75 173.8125 C154.6561485 169.53920637 167.88317336 162.48289319 179.7578125 151.1015625 C182 149 182 149 185 147 C188.51724138 147.51724138 188.51724138 147.51724138 190 149 C190.5 151.125 190.5 151.125 190 154 C177.81422298 170.77630946 154.12879948 179.79587296 134.64111328 183.58544922 C130.38116263 184.25409372 126.18154514 184.38311407 121.875 184.375 C120.9662915 184.37338867 120.05758301 184.37177734 119.12133789 184.37011719 C110.6087767 184.21769355 103.08190701 182.54232174 95 180 C94.03835937 179.74605469 93.07671875 179.49210938 92.0859375 179.23046875 C79.61403348 175.66455816 67.81421277 168.57838834 56.796875 161.84765625 C38.30260528 150.65327947 16.02733231 147.17673435 -5.1875 151.0625 C-17.87455214 154.23426303 -28.82756995 159.81087392 -39 168 C-40.72845974 169.33424962 -42.4575824 170.6676411 -44.1875 172 C-45.45975213 172.99819431 -46.73116595 173.99746446 -48 175 C-57.91072826 171.11606595 -63.95906695 156.32021095 -68.07568359 147.15576172 C-69.66977371 143.43790232 -71.12207751 139.67786704 -72.5 135.875 C-72.75547607 135.17673096 -73.01095215 134.47846191 -73.27416992 133.7590332 C-74.65818541 129.74028031 -75.6324897 126.23889732 -75 122 C-64.34489779 109.73126452 -40.88810112 104.48371558 -25.5 103.25 C-23.66738456 103.15214189 -21.83415104 103.06281339 -20 103 C-20.2165625 102.04867187 -20.433125 101.09734375 -20.65625 100.1171875 C-25.08434707 78.71646716 -25.32823469 55.73209253 -18 35 C-17.74299316 34.26539551 -17.48598633 33.53079102 -17.22119141 32.77392578 C-13.32811046 21.96937149 -8.21316406 8.21316406 0 0 Z " fill="#ED222A" transform="translate(102,96)"/>
<path d="M0 0 C2.4375 2.0625 2.4375 2.0625 4 4 C4.33 3.67 4.66 3.34 5 3 C7.89795316 2.51700781 10.04059278 2.44129985 12.63671875 3.953125 C18.24812623 8.50503597 22.51967884 14.3833655 27 20 C28.97922698 22.35235994 30.98653819 24.67677484 33 27 C33 23.73303883 30.65350117 22.2079596 28.5 19.875 C27.6646875 18.96492188 26.829375 18.05484375 25.96875 17.1171875 C25.3190625 16.41851562 24.669375 15.71984375 24 15 C24.33 14.34 24.66 13.68 25 13 C42.73252415 26.58629721 42.73252415 26.58629721 44.76977539 32.07324219 C45.85923974 34.25483272 45.85923974 34.25483272 48.43920898 34.66601562 C49.95236694 34.78493164 49.95236694 34.78493164 51.49609375 34.90625 C52.61306641 35.01066406 53.73003906 35.11507812 54.88085938 35.22265625 C56.64139648 35.35994141 56.64139648 35.35994141 58.4375 35.5 C73.42676411 36.70457018 87.05613729 40.4194705 97.8125 51.625 C102.020216 56.767764 104.46588609 62.91070064 107 69 C104.81351237 71.4198163 102.81663564 72.73254576 99.83984375 74.04296875 C99.04642578 74.39423828 98.25300781 74.74550781 97.43554688 75.10742188 C96.61119141 75.46384766 95.78683594 75.82027344 94.9375 76.1875 C94.10927734 76.55552734 93.28105469 76.92355469 92.42773438 77.30273438 C86.27756841 80 86.27756841 80 84 80 C82.47410137 77.59165397 81.16723497 75.09447451 79.828125 72.578125 C76.24702243 67.52785215 71.53660911 65.55398846 65.6875 64.0625 C65.06649414 63.90048096 64.44548828 63.73846191 63.80566406 63.5715332 C59.51495018 62.49478578 55.20264628 61.65694412 50.84765625 60.8828125 C29.74867075 57.10513433 29.74867075 57.10513433 21 50 C19.64689584 49.03025241 18.28682851 48.07018445 16.921875 47.1171875 C7.22228674 40.31985468 -2.02895049 33.06679052 -11.12988281 25.49267578 C-13.83351598 23.33471061 -16.66443598 21.35930952 -19.50927734 19.39233398 C-20.00121582 18.93286377 -20.4931543 18.47339355 -21 18 C-21 17.01 -21 16.02 -21 15 C-17.90935993 13.45467996 -15.32569785 13.33471324 -12 14 C-7.99599949 15.85976948 -4.30123575 18.15994548 -0.5625 20.5 C0.45521484 21.12003906 1.47292969 21.74007813 2.52148438 22.37890625 C5.02309825 23.90571284 7.51510478 25.44618551 10 27 C8.14688016 24.52004488 6.29263078 22.04095033 4.4375 19.5625 C3.8919043 18.83272949 3.34630859 18.10295898 2.78417969 17.35107422 C-0.69742178 12.7044674 -4.23341949 8.11211596 -7.890625 3.6015625 C-9 2 -9 2 -9 0 C-5.81452856 -1.59273572 -3.39809153 -0.76164121 0 0 Z " fill="#040404" transform="translate(55,278)"/>
<path d="M0 0 C1.2684375 0.12375 1.2684375 0.12375 2.5625 0.25 C3.5525 1.735 3.5525 1.735 4.5625 3.25 C4.16458252 3.78890869 3.76666504 4.32781738 3.35668945 4.88305664 C1.52890418 7.35912828 -0.29805309 9.83580973 -2.125 12.3125 C-3.06375977 13.58383789 -3.06375977 13.58383789 -4.02148438 14.88085938 C-7.53342315 19.64312191 -11.01308713 24.42439333 -14.4375 29.25 C-13.81818604 28.82066162 -13.19887207 28.39132324 -12.56079102 27.94897461 C-9.72371887 26.0030324 -6.86277432 24.09540647 -4 22.1875 C-3.02611328 21.51138672 -2.05222656 20.83527344 -1.04882812 20.13867188 C7.21037946 14.69698661 7.21037946 14.69698661 12.78515625 15.31640625 C14.03167969 15.62449219 15.27820313 15.93257813 16.5625 16.25 C15.99839249 19.71884021 14.99700555 21.10239556 12.2734375 23.28125 C11.58701172 23.83828613 10.90058594 24.39532227 10.19335938 24.96923828 C9.07670898 25.85071533 9.07670898 25.85071533 7.9375 26.75 C7.16986328 27.3672998 6.40222656 27.98459961 5.61132812 28.62060547 C4.02758339 29.89262798 2.44064227 31.16068068 0.85058594 32.42480469 C-1.21466143 34.07224273 -3.26310144 35.73746464 -5.3046875 37.4140625 C-8.34730845 39.90658669 -11.42860091 42.34359655 -14.53515625 44.75585938 C-15.82508679 45.76899784 -17.10350666 46.79693274 -18.37109375 47.83789062 C-30.18964116 57.51505766 -41.58398549 61.23180806 -56.4375 64.25 C-70.6591688 66.63454514 -70.6591688 66.63454514 -82.4375 74.25 C-84.1649767 77.14969303 -85.41643495 80.03685823 -86.4375 83.25 C-91.29879093 82.52080636 -95.65438422 80.760684 -100.1875 78.9375 C-101.35732422 78.49374023 -101.35732422 78.49374023 -102.55078125 78.04101562 C-103.66259766 77.59338867 -103.66259766 77.59338867 -104.796875 77.13671875 C-105.47202148 76.87076904 -106.14716797 76.60481934 -106.84277344 76.33081055 C-108.4375 75.25 -108.4375 75.25 -109.21411133 73.28930664 C-109.9142772 66.89751918 -104.08730745 58.93214919 -100.23046875 54.09375 C-92.4263273 46.06857623 -82.42055077 41.058481 -71.4375 39.5625 C-70.60935791 39.43858887 -69.78121582 39.31467773 -68.92797852 39.18701172 C-63.73075542 38.44732457 -58.61867485 38.06921018 -53.375 37.875 C-46.44085635 37.56139551 -40.3852435 35.99326666 -33.76147461 33.99243164 C-28.39796249 32.4080656 -23.03841046 31.06230693 -17.4375 32.25 C-15.4375 34.25 -15.4375 34.25 -15.43359375 36.16015625 C-16.98751069 39.39496388 -19.31632093 40.13334776 -22.5 41.6875 C-23.11544678 41.98825439 -23.73089355 42.28900879 -24.36499023 42.59887695 C-29.74396776 45.13091414 -35.27934271 46.94397421 -41.01782227 48.47631836 C-45.29716086 49.66740727 -48.15724696 51.25936623 -51.4375 54.25 C-50.96183594 53.93546875 -50.48617187 53.6209375 -49.99609375 53.296875 C-45.16359153 50.34219593 -40.63450629 48.65586727 -35.125 47.3125 C-27.97260573 45.55691232 -21.8496909 42.83222955 -15.4375 39.25 C-15.4375 36.94 -15.4375 34.63 -15.4375 32.25 C-18.08208379 30.92770811 -20.11511301 31.15322806 -23.0625 31.1875 C-24.56683594 31.20103516 -24.56683594 31.20103516 -26.1015625 31.21484375 C-27.25785156 31.23224609 -27.25785156 31.23224609 -28.4375 31.25 C-24.24047003 25.55286158 -19.87731861 20.0208906 -15.375 14.5625 C-14.77623047 13.82966797 -14.17746094 13.09683594 -13.56054688 12.34179688 C-10.34907388 8.44089485 -7.08346836 4.74879165 -3.4375 1.25 C-2.4375 0.25 -2.4375 0.25 0 0 Z " fill="#040404" transform="translate(274.4375,272.75)"/>
<path d="M0 0 C2.62323448 2.13137801 3.89934032 3.25966427 4.36328125 6.671875 C3.89449952 10.9665205 2.2600584 13.89077864 0.1875 17.625 C-3.32637961 24.26812875 -5.62407428 30.57454962 -7 38 C-7.27457031 39.12341797 -7.27457031 39.12341797 -7.5546875 40.26953125 C-8.19296985 44.1832099 -8.19064085 48.0405611 -8.1875 52 C-8.1884668 53.25453979 -8.1884668 53.25453979 -8.18945312 54.53442383 C-8.13060774 61.5122828 -7.37748872 68.1494534 -6 75 C-17.54986004 71.61469619 -27.5906403 67.12653144 -35.80078125 58.203125 C-43.97030148 50.01909408 -55.50097103 45.27057933 -66.4375 42.125 C-70.38950032 40.8743021 -72.62586869 40.00778994 -74.75 36.375 C-76 33 -76 33 -76 31 C-52.20905661 33.86229979 -34.39874278 46.27091697 -18 63 C-17.94839722 61.80008423 -17.94839722 61.80008423 -17.89575195 60.57592773 C-16.5229314 31.00175478 -16.5229314 31.00175478 -11 19 C-10.51015625 17.90816406 -10.0203125 16.81632812 -9.515625 15.69140625 C-6.8320285 10.04063734 -3.82292686 4.94731711 0 0 Z " fill="#ED232A" transform="translate(176,169)"/>
<path d="M0 0 C2.86241411 -0.41888987 5.07702688 -0.53400587 7.640625 0.94921875 C13.2418224 5.51655028 17.51776519 11.3809665 22 17 C23.97922698 19.35235994 25.98653819 21.67677484 28 24 C28 20.73303883 25.65350117 19.2079596 23.5 16.875 C22.6646875 15.96492188 21.829375 15.05484375 20.96875 14.1171875 C20.3190625 13.41851562 19.669375 12.71984375 19 12 C19.33 11.34 19.66 10.68 20 10 C37.82457177 23.65682221 37.82457177 23.65682221 41 31 C33.61168751 32.52861638 28.53729878 31.17893595 21.3984375 28.92578125 C17.05153491 27.74162503 13.47026083 27.69170615 9 28 C8.67 29.65 8.34 31.3 8 33 C14.85430723 36.46760905 21.35974339 39.2806051 28.8125 41.0625 C34.78955217 42.52891963 39.05360843 44.3659164 44 48 C43.01 48.495 43.01 48.495 42 49 C40.11659829 48.30364086 38.26632718 47.51666175 36.4375 46.6875 C32.76999261 45.09388072 29.37242879 43.71997791 25.4375 43 C18.3616917 41.63381479 9.90555414 38.41302526 5 33 C4.4375 30.4375 4.4375 30.4375 5 28 C7.20806383 25.87783339 8.51052835 25.05562178 11.578125 24.70703125 C12.45984375 24.74183594 13.3415625 24.77664063 14.25 24.8125 C15.14203125 24.83957031 16.0340625 24.86664063 16.953125 24.89453125 C17.62859375 24.92933594 18.3040625 24.96414063 19 25 C18.45472656 24.47792969 17.90945312 23.95585937 17.34765625 23.41796875 C0.84102024 7.30636335 0.84102024 7.30636335 0 0 Z " fill="#D6D6D6" transform="translate(60,281)"/>
<path d="M0 0 C2.5546875 2.1171875 2.5546875 2.1171875 4.875 4.875 C6.14730469 6.36386719 6.14730469 6.36386719 7.4453125 7.8828125 C8.29877398 8.92031579 9.15035707 9.95936728 10 11 C10.80179688 11.96679688 11.60359375 12.93359375 12.4296875 13.9296875 C13.94431314 15.77069712 15.45120758 17.61810245 16.94921875 19.47265625 C19.57126504 22.70401615 22.27476207 25.8554947 25 29 C23.86111328 28.98259766 23.86111328 28.98259766 22.69921875 28.96484375 C21.70535156 28.95582031 20.71148437 28.94679688 19.6875 28.9375 C18.70136719 28.92589844 17.71523437 28.91429687 16.69921875 28.90234375 C13.90036151 28.87670138 13.90036151 28.87670138 11 30 C10.60296875 29.14019531 10.2059375 28.28039062 9.796875 27.39453125 C7.92605337 23.86030518 5.72480054 20.80522192 3.25 17.6875 C2.81187988 17.12571045 2.37375977 16.5639209 1.92236328 15.98510742 C-0.10660959 13.38643573 -2.15578012 10.80458678 -4.2109375 8.2265625 C-4.84257813 7.42992187 -5.47421875 6.63328125 -6.125 5.8125 C-6.68445312 5.11769531 -7.24390625 4.42289062 -7.8203125 3.70703125 C-9 2 -9 2 -9 0 C-5.78023476 -1.60988262 -3.43242785 -0.80891612 0 0 Z " fill="#0B0B0B" transform="translate(55,278)"/>
<path d="M0 0 C1.2684375 0.12375 1.2684375 0.12375 2.5625 0.25 C3.2225 1.24 3.8825 2.23 4.5625 3.25 C2.31421391 6.31376157 0.06356683 9.37578112 -2.1875 12.4375 C-2.82171875 13.30181641 -3.4559375 14.16613281 -4.109375 15.05664062 C-4.728125 15.89775391 -5.346875 16.73886719 -5.984375 17.60546875 C-6.58185547 18.41806152 -7.17933594 19.2306543 -7.79492188 20.06787109 C-9.10741416 21.81148822 -10.48844658 23.50343788 -11.890625 25.17578125 C-13.73641194 27.21956215 -13.73641194 27.21956215 -13.4375 30.25 C-16.74820838 31.25109515 -19.73834769 31.35356134 -23.1875 31.3125 C-24.17234375 31.30347656 -25.1571875 31.29445313 -26.171875 31.28515625 C-26.91953125 31.27355469 -27.6671875 31.26195312 -28.4375 31.25 C-24.24047003 25.55286158 -19.87731861 20.0208906 -15.375 14.5625 C-14.77623047 13.82966797 -14.17746094 13.09683594 -13.56054688 12.34179688 C-10.34907388 8.44089485 -7.08346836 4.74879165 -3.4375 1.25 C-2.4375 0.25 -2.4375 0.25 0 0 Z " fill="#0A0A0A" transform="translate(274.4375,272.75)"/>
<path d="M0 0 C0.8971875 0.309375 0.8971875 0.309375 1.8125 0.625 C-2.39122811 10.08889052 -11.19640239 18.12594501 -18.1875 25.625 C-18.85652344 26.36363281 -19.52554688 27.10226562 -20.21484375 27.86328125 C-22.99536505 30.34647948 -25.55364232 30.34547249 -29.1875 30.625 C-24.27202462 23.84961502 -18.93679041 17.489503 -13.48876953 11.14208984 C-12.33091299 9.79219856 -11.17872256 8.43745188 -10.02734375 7.08203125 C-9.42019531 6.37433594 -8.81304687 5.66664063 -8.1875 4.9375 C-7.671875 4.33550781 -7.15625 3.73351562 -6.625 3.11328125 C-3.10398974 -0.53211253 -3.10398974 -0.53211253 0 0 Z " fill="#0E0E0E" transform="translate(262.1875,277.375)"/>
<path d="M0 0 C4.25859145 0.22081585 6.46605467 0.55028266 9.7734375 3.3359375 C10.65878798 4.33312348 11.52540153 5.34718299 12.375 6.375 C12.8390625 6.90939697 13.303125 7.44379395 13.78125 7.99438477 C15.20681982 9.64756862 16.60491433 11.32105932 18 13 C18.86686191 14.02241156 19.73403679 15.04455787 20.6015625 16.06640625 C24.08286872 20.23376793 27.29734611 24.27880149 30 29 C26.09086605 29.08317306 23.96851964 28.75758977 20.84765625 26.31640625 C15.849253 21.38827932 11.39989932 16.00081544 7.01953125 10.5234375 C5.3641525 8.45501453 3.67114788 6.43974121 1.9375 4.4375 C0 2 0 2 0 0 Z " fill="#0B0B0B" transform="translate(61,281)"/>
<path d="M0 0 C0.66 0.33 1.32 0.66 2 1 C-0.06185704 3.54218884 -2.12460383 6.08365434 -4.1875 8.625 C-4.76564453 9.33785156 -5.34378906 10.05070312 -5.93945312 10.78515625 C-9.26488829 14.88088996 -12.61250976 18.95542596 -16 23 C-15.31292969 22.97679687 -14.62585938 22.95359375 -13.91796875 22.9296875 C-12.56638672 22.90261719 -12.56638672 22.90261719 -11.1875 22.875 C-10.29417969 22.85179687 -9.40085938 22.82859375 -8.48046875 22.8046875 C-6 23 -6 23 -3 25 C-2.3125 28.3125 -2.3125 28.3125 -3 32 C-9.08056514 38.18190789 -19.57147921 40.40916916 -27.6875 42.5 C-32.53814894 43.7614475 -36.60843636 45.59706895 -41 48 C-40 45 -40 45 -38.20703125 43.75390625 C-33.23693523 41.28101997 -28.43586872 39.48277367 -23.0625 38.0625 C-16.4179313 36.29401129 -10.84645958 33.57946505 -5 30 C-5.495 28.02 -5.495 28.02 -6 26 C-11.78591511 25.89522488 -17.29309366 26.00749455 -23 27 C-19.60690407 22.99788685 -16.15972704 19.06528547 -12.625 15.1875 C-8.19658701 10.29293827 -4.06130984 5.2011325 0 0 Z " fill="#D1D1D1" transform="translate(263,280)"/>
<path d="M0 0 C8.10880256 4.74515113 18.32376659 12.05099754 22 21 C18.16032831 20.74327776 16.3655545 20.32208918 13.4375 17.7421875 C12.2309375 16.32292969 12.2309375 16.32292969 11 14.875 C10.14664063 13.88371094 9.29328125 12.89242188 8.4140625 11.87109375 C7.61742188 10.92363281 6.82078125 9.97617187 6 9 C5.34773438 8.26910156 4.69546875 7.53820312 4.0234375 6.78515625 C0 2.27547393 0 2.27547393 0 0 Z " fill="#181818" transform="translate(79,291)"/>
<path d="M0 0 C0 4.29053332 -2.54017363 6.31351677 -5.25 9.375 C-6.23495389 10.5073092 -7.21933772 11.64011456 -8.203125 12.7734375 C-8.68040039 13.31621338 -9.15767578 13.85898926 -9.64941406 14.41821289 C-10.88440304 15.86461448 -12.04078975 17.37718786 -13.1875 18.89453125 C-15 21 -15 21 -17.75 21.3125 C-18.4925 21.209375 -19.235 21.10625 -20 21 C-16.27306259 12.27650915 -7.7671237 5.14192267 0 0 Z " fill="#161616" transform="translate(245,288)"/>
<path d="M0 0 C0.66 0.33 1.32 0.66 2 1 C-0.06185704 3.54218884 -2.12460383 6.08365434 -4.1875 8.625 C-4.76564453 9.33785156 -5.34378906 10.05070312 -5.93945312 10.78515625 C-9.26488829 14.88088996 -12.61250976 18.95542596 -16 23 C-13.03 23 -10.06 23 -7 23 C-7 23.33 -7 23.66 -7 24 C-8.91345327 24.53251766 -10.8309295 25.05059483 -12.75 25.5625 C-13.81734375 25.85253906 -14.8846875 26.14257812 -15.984375 26.44140625 C-18.84335927 26.97098494 -20.31597383 26.98370862 -23 26 C-22.40574219 25.44054687 -21.81148437 24.88109375 -21.19921875 24.3046875 C-14.92672429 18.237049 -9.54029293 11.82992452 -4.25 4.90625 C-2 2 -2 2 0 0 Z " fill="#D9D9D9" transform="translate(263,280)"/>
<path d="M0 0 C0.66 0.66 1.32 1.32 2 2 C-7.41002278 13.52164009 -7.41002278 13.52164009 -12 19 C-10.02 19 -8.04 19 -6 19 C-11.59814306 22.73209538 -17.45532538 23.27269478 -24 23 C-23.34 22.67 -22.68 22.34 -22 22 C-21.67 21.34 -21.34 20.68 -21 20 C-19.870177 20.11178589 -19.870177 20.11178589 -18.7175293 20.22583008 C-15.95634443 20.25775342 -15.95634443 20.25775342 -14.17895508 18.48706055 C-13.63134521 17.79394775 -13.08373535 17.10083496 -12.51953125 16.38671875 C-11.91302734 15.63326172 -11.30652344 14.87980469 -10.68164062 14.10351562 C-10.06482422 13.30623047 -9.44800781 12.50894531 -8.8125 11.6875 C-8.18408203 10.90181641 -7.55566406 10.11613281 -6.90820312 9.30664062 C-4.48666344 6.26352926 -2.15819543 3.23729314 0 0 Z " fill="#CFCFCF" transform="translate(246,288)"/>
<path d="M0 0 C1.46484375 1.23697917 2.9296875 2.47395833 4.39453125 3.7109375 C5.8655046 4.89201099 7.43037794 5.95358529 9 7 C2.91891127 8.80789124 -2.16862339 6.83657235 -8 5 C-5 3 -5 3 -1.8125 3.375 C-0.884375 3.58125 0.04375 3.7875 1 4 C0.67 2.68 0.34 1.36 0 0 Z " fill="#BEBEBE" transform="translate(89,305)"/>
<path d="M0 0 C1.13199353 0.9080162 2.25532363 1.82683826 3.375 2.75 C4.00148438 3.26046875 4.62796875 3.7709375 5.2734375 4.296875 C7 6 7 6 9 10 C2.07 9.505 2.07 9.505 -5 9 C-5 8.34 -5 7.68 -5 7 C-1.7 7 1.6 7 5 7 C4.175 6.21625 3.35 5.4325 2.5 4.625 C0 2 0 2 0 0 Z " fill="#EEEEEE" transform="translate(74,299)"/>
<path d="M0 0 C6.95220323 0.21967928 12.49242234 2.96931467 18 7 C17.01 7.495 17.01 7.495 16 8 C14.05403229 7.28337117 12.14090096 6.47637581 10.25 5.625 C6.13021492 3.77213184 2.48832456 2.57783819 -2 2 C-1.34 1.34 -0.68 0.68 0 0 Z " fill="#CCCCCC" transform="translate(86,322)"/>
<path d="M0 0 C3.66786393 1.50349377 5.68910393 3.63728792 8.25 6.625 C8.95640625 7.44226563 9.6628125 8.25953125 10.390625 9.1015625 C10.92171875 9.72804688 11.4528125 10.35453125 12 11 C11.34 11.66 10.68 12.32 10 13 C8.51511559 11.40112446 7.03726855 9.79571095 5.5625 8.1875 C4.32693359 6.84751953 4.32693359 6.84751953 3.06640625 5.48046875 C1 3 1 3 0 0 Z " fill="#DFDFDF" transform="translate(78,293)"/>
<path d="M0 0 C1.76923828 0.04060547 1.76923828 0.04060547 3.57421875 0.08203125 C4.47785156 0.11683594 5.38148438 0.15164063 6.3125 0.1875 C6.3125 0.5175 6.3125 0.8475 6.3125 1.1875 C4.39904673 1.72001766 2.4815705 2.23809483 0.5625 2.75 C-0.50484375 3.04003906 -1.5721875 3.33007812 -2.671875 3.62890625 C-5.53085927 4.15848494 -7.00347383 4.17120862 -9.6875 3.1875 C-6.99455929 -0.5165087 -4.35133403 -0.12924755 0 0 Z " fill="#E8E8E8" transform="translate(249.6875,302.8125)"/>
<path d="M0 0 C0.66 0.66 1.32 1.32 2 2 C0.02 4.31 -1.96 6.62 -4 9 C-4.66 8.67 -5.32 8.34 -6 8 C-4.02 5.36 -2.04 2.72 0 0 Z " fill="#E2E2E2" transform="translate(246,288)"/>
</svg>
