<svg xmlns="http://www.w3.org/2000/svg" xmlns:xlink="http://www.w3.org/1999/xlink" xmlns:inkscape="http://www.inkscape.org/namespaces/inkscape" version="1.1" width="1920" height="1080" viewBox="0 0 1920 1080">
<defs>
<clipPath id="clip_0">
<path transform="matrix(1,0,0,-1,0,1080)" d="M0 1080H1920V0H0Z"/>
</clipPath>
</defs>
<g inkscape:groupmode="layer" inkscape:label="Layer 1">
<text fill="#231f20" xml:space="preserve" transform="matrix(1 0 -0 1 0 1080)" font-size="159.2829" font-family="HelveticaNeueBold" font-weight="bold"><tspan y="-611.8779" x="799.2051 905.4468 967.40786 1008.5028 1152.8131">Prima</tspan><tspan y="-420.73847" x="799.2051 917.2337 1008.6621 1100.0905 1141.1854 1197.253 1291.7078 1383.1361 1474.5645 1536.5255 1627.9539 1672.2345 1713.3295 1769.3971">Healthcare ltd</tspan></text>
<text fill="#ed1c24" xml:space="preserve" transform="matrix(1 0 -0 1 0 1080)" font-size="122.3567" font-family="Montserrat"><tspan y="-306.9834" x="799.2051 886.2007 958.3911 1005.86557 1079.769 1105.7086 1137.7661 1205.6741 1238.588 1315.3057 1375.1381 1449.0415 1481.099 1528.451 1605.1687 1637.2262 1701.7083 1778.4259">Care, close to you</tspan></text>
<g clip-path="url(#clip_0)">
<path transform="matrix(1,0,0,-1,462.6245,612.19338)" d="M0 0C-6.338 3.073-10.963 5.315-16.315 7.91-12.941 18.271-9.843 27.797-6.736 37.319 8.234 83.192 10.448 129.778-1.36 176.461-15.504 232.376-47.277 277.04-92.548 312.282-122.721 335.771-156.761 351.576-193.434 361.925-197.304 363.018-201.292 363.691-206.569 364.855-234.572 319.364-250.919 270.549-251.929 217.003-252.945 163.154-238.727 113.661-206.005 67.686-214.032 66.333-220.094 65.312-226.417 64.246-239.441 81.356-248.001 100.074-256.397 119.928-299.264 119.16-337.949 107.423-373.093 85.37-373.557 65.271-350.67 13.597-331.914-4.664-329.776-3.781-326.821-3.31-324.892-1.647-307.184 13.613-287.019 24.416-265.43 33.179-216.667 52.972-167.542 52.771-117.689 37.941-91.313 30.096-67.701 16.83-44.566 2.494-21.302-11.923 3.125-23.534 29.986-29.512 88.904-42.623 143.659-33.847 192.895 2.236 202.317 9.143 210.607 17.602 219.359 25.412 224.198 29.73 228.662 34.75 236.155 32.965 243.168 24.137 243.405 21.577 236.457 14.416 201.838-21.26 160.919-44.661 111.042-52.137 56.487-60.313 6.25-48.219-41.222-22.148-65.004-9.089-87.361 6.478-113.221 15.744-171.018 36.455-227.311 33.708-281.374 4.453-295.786-3.346-308.118-14.995-321.376-24.915-325.231-27.799-328.987-30.817-333.533-34.354-367.249 2.17-387.584 44.318-396.514 92.959-356.552 122.042-312.062 136.28-262.439 140.334-284.009 229.712-266.118 310.919-215.485 387.059-126.077 369.13-56.163 324.176-7.903 245.396 29.595 277.237 70.763 298.621 120.088 306.526 124.096 300.477 129.197 294.62 132.238 287.839 140.865 268.602 149.909 249.398 156.425 229.411 163.458 207.838 165.716 185.201 165.782 162.312 165.858 136.009 161.262 110.703 152.245 86.183 140.258 53.586 120.773 25.97 95.142 2.63 91.849-.37 88.217-3.034 85.157-6.249 73.21-18.804 59.386-16.724 42.57-11.836 105.948 26.655 141.179 80.582 146.534 153.288 150.158 202.509 131.232 251.743 111.192 283.251 83.215 283.294 23.186 251.947 2.705 225.827 33.636 151.471 33.535 76.335 0 0" fill="#ed1c24"/>
<path transform="matrix(1,0,0,-1,250.7456,495.4478)" d="M0 0C-2.709 6.559-5.08 12.296-8.424 20.393 51.513 11.316 97.042-17.336 133.728-62.473 128.644-4.681 140.17 47.979 174.883 95.041 185.314 84.291 186.173 78.451 180.02 67.769 156.97 27.753 147.825-14.972 155.061-60.88 156.295-68.712 157.314-76.578 158.62-85.741 141.323-77.872 125.202-70.645 109.208-63.148 106.731-61.987 104.628-59.784 102.7-57.736 75.492-28.824 42.316-10.436 3.796-1.397 2.627-1.123 1.523-.569 0 0" fill="#ed1c24"/>
<path transform="matrix(1,0,0,-1,162.8345,730.8662)" d="M0 0C-2.678 3.552-5.005 6.589-7.279 9.666-12.047 16.119-16.611 22.731-21.576 29.029-30.405 40.23-39.469 51.246-48.436 62.339-50.898 65.386-50.366 67.729-46.848 69.315-46.723 69.371-46.591 69.417-46.472 69.484-40.455 72.872-35.099 71.424-29.839 67.544-23.679 62.999-18.952 57.122-14.114 51.341-4.652 40.031 4.559 28.507 14.199 17.354 19.661 11.034 25.77 5.273 31.586-.739 31.995-1.163 32.398-1.592 33.135-2.367 29.776-1.374 26.936-.408 24.033 .298 18.526 1.637 12.967 2.355 7.316 1.106 1.667-.144-3.373-4.932-4.278-9.971-5.228-15.254-3.126-20.955 3.751-24.775 13.16-30.002 23.205-33.693 33.168-37.617 40.177-40.378 47.476-41.75 54.86-42.967 65.202-44.671 74.429-49.19 83.135-54.866 84.056-55.467 84.979-56.063 85.874-56.7 87.106-57.578 88.372-57.793 89.29-56.43 90.242-55.017 89.421-53.927 88.16-53.209 82.68-50.089 77.271-46.826 71.661-43.958 65.115-40.611 58-39.061 50.736-38.073 42.851-37.002 35.415-34.277 28.139-31.211 20.49-27.988 12.941-24.519 5.434-20.974 1.658-19.19-.44-16.022-.306-11.734-.164-7.201 3.987-3.381 9.095-3.002 16.107-2.481 22.891-3.807 29.631-5.594 40.708-8.53 51.709-11.887 62.937-14.067 71.172-15.667 79.711-15.763 88.127-16.361 103.529-17.456 118.955-18.252 134.344-19.501 148.612-20.659 161.767-25.443 174.114-32.637 181.604-37.001 188.814-41.722 195.478-47.291 206.051-56.128 214.08-66.842 219.582-79.455 222.413-85.945 225.164-92.471 227.944-98.982 228.046-99.224 228.078-99.494 228.162-99.831 209.986-107.93 191.867-116.003 173.923-123.999 172.816-121.515 171.668-119.128 170.676-116.678 167.674-109.264 163.721-102.506 157.559-97.232 151.47-92.021 144.581-88.04 136.91-85.972 126.452-83.151 115.825-80.92 105.215-78.703 88.609-75.234 71.941-72.068 55.333-68.612 48.686-67.229 42.597-64.433 36.999-60.492 21.789-49.785 6.416-39.309-8.721-28.5-16.03-23.281-22.979-17.557-30.041-11.997-40.986-3.382-51.878 5.303-62.816 13.93-67.717 17.795-72.687 21.572-77.601 25.423-80.375 27.597-80.396 29.858-77.374 31.548-69.935 35.708-62.465 37.374-54.47 32.388-42.469 24.904-30.234 17.798-18.097 10.532-12.618 7.252-7.137 3.973-1.651 .702-1.325 .508-.948 .398 0 0"/>
<path transform="matrix(1,0,0,-1,223.936,741.5791)" d="M0 0C-5.836 1.518-11.679 3.011-17.5 4.585-18.179 4.768-18.806 5.319-19.343 5.821-32.489 18.117-44.584 31.386-55.96 45.327-62.246 53.03-68.656 60.632-74.988 68.297-76.646 70.304-76.528 70.632-74.155 71.606-68.892 73.769-64.197 72.006-60.026 69.011-56.83 66.715-53.86 63.951-51.286 60.967-39.683 47.52-28.267 33.91-16.762 20.378-11.433 14.108-6.053 7.883-.701 1.632-.354 1.226-.055 .777 .267 .35 .178 .232 .089 .116 0 0"/>
<path transform="matrix(1,0,0,-1,246.2412,743.9697)" d="M0 0C-5.165 .484-9.845 .892-14.513 1.408-15.002 1.462-15.479 2.113-15.863 2.571-25.161 13.642-34.439 24.73-43.737 35.802-47.43 40.197-51.162 44.56-54.876 48.938-54.751 49.131-54.626 49.325-54.501 49.519-52.352 48.425-50.088 47.507-48.072 46.207-38.391 39.965-29.882 32.322-22.016 23.95-15.261 16.76-8.562 9.516-1.848 2.286-1.302 1.698-.834 1.038 0 0"/>
<path transform="matrix(1,0,0,-1,590.0073,725.5615)" d="M0 0C3.322 3.403 6.689 6.536 9.686 9.99 15.797 17.033 21.801 24.174 27.68 31.413 36.066 41.741 44.19 52.284 52.651 62.55 56.312 66.99 60.568 70.881 65.8 73.606 68.923 75.234 71.95 75.269 75.128 74.164 76.361 73.735 77.58 73.256 78.773 72.728 81.689 71.438 82.303 68.933 80.313 66.385 75.923 60.766 71.387 55.256 67.131 49.538 59.023 38.645 51.073 27.636 43.051 16.678 40.337 12.971 37.602 9.277 34.886 5.571 34.325 4.805 33.806 4.008 33.268 3.225 33.372 3.033 33.476 2.843 33.581 2.652 33.921 2.928 34.238 3.241 34.606 3.473 51.227 13.937 67.851 24.397 84.483 34.845 85.936 35.757 87.452 36.57 88.942 37.425 96.236 41.605 103.049 39.108 109.679 35.732 112.537 34.277 112.611 31.968 110.117 29.864 107.127 27.342 104.009 24.973 100.987 22.487 89.324 12.894 77.526 3.458 66.063-6.369 49.988-20.149 32.884-32.553 15.737-44.917 8.832-49.896 1.975-54.944-4.939-59.91-11.036-64.289-18.033-66.416-25.266-68.01-46.263-72.634-67.233-77.374-88.233-81.985-96.461-83.792-104.419-86.272-111.892-90.231-123.133-96.188-130.984-105.062-135.271-117.064-136.194-119.65-137.172-122.217-138.173-124.921-156.449-117.219-174.731-109.515-193.116-101.768-193.105-101.575-193.159-101.29-193.064-101.068-189.089-91.708-185.315-82.255-181.053-73.027-176.851-63.929-170.312-56.479-162.961-49.772-151.533-39.348-138.486-31.387-124.348-25.26-116.87-22.02-108.871-20.299-100.789-19.521-83.233-17.828-65.655-16.346-48.066-15.041-35.948-14.141-24.154-11.969-12.534-8.358-2.981-5.391 6.44-1.727 16.515-.764 19.563-.472 22.742-.303 25.722-.844 29.698-1.564 32.622-4.117 33.277-8.312 33.984-12.837 31.885-16.335 27.95-18.334 20.609-22.063 13.201-25.697 5.637-28.941-.149-31.423-6.147-33.481-12.185-35.279-16.841-36.665-21.76-37.145-26.465-38.396-35.449-40.785-43.604-45.017-51.25-50.262-52.381-51.038-53.691-51.658-54.575-52.655-55.159-53.313-55.57-54.692-55.274-55.438-54.77-56.708-53.435-56.744-52.291-56.013-50.672-54.978-49.115-53.846-47.51-52.788-38.643-46.949-29.207-42.426-18.59-40.917-9.159-39.577-.471-36.022 8.231-32.433 15.532-29.421 22.736-26.23 29.517-22.14 33.024-20.023 35.913-17.519 37.114-13.353 38.75-7.679 35.776-.959 30.198 1.92 25.043 4.579 19.585 4.673 14.117 3.591 9.43 2.664 4.838 1.251 0 0"/>
<path transform="matrix(1,0,0,-1,561.6675,734.4092)" d="M0 0C3.226 3.977 6.44 7.963 9.681 11.928 17.361 21.326 25.032 30.731 32.747 40.101 39.722 48.57 46.683 57.054 53.79 65.412 56.762 68.908 60.517 71.457 64.948 72.895 67.813 73.824 70.594 73.637 73.403 72.563 75.161 71.892 75.264 71.066 74.167 69.692 68.988 63.207 63.902 56.646 58.664 50.209 51.178 41.01 43.773 31.734 35.98 22.799 30.713 16.76 24.845 11.245 19.225 5.518 18.808 5.092 18.263 4.685 17.704 4.522 11.916 2.847 6.112 1.224 .313-.414 .208-.276 .104-.139 0 0"/>
<path transform="matrix(1,0,0,-1,593.5312,687.66799)" d="M0 0C-4.934-6.13-9.861-12.264-14.803-18.387-22.289-27.661-29.83-36.892-37.23-46.232-38.454-47.777-39.709-48.512-41.634-48.664-45.522-48.97-49.393-49.492-53.835-49.988-52.39-48.197-51.332-46.737-50.125-45.413-42.001-36.496-33.977-27.483-25.658-18.751-19.403-12.186-12.466-6.347-4.678-1.615-3.299-.778-1.768-.194-.307 .507-.205 .338-.103 .169 0 0"/>
</g>
</g>
</svg>
